<mxfile host="app.diagrams.net" modified="2024-05-11T13:35:06.381Z" agent="Mozilla/5.0 (Windows NT 10.0; Win64; x64; rv:125.0) Gecko/20100101 Firefox/125.0" etag="4q7hSOlefQpewZjDKZsE" version="24.4.0" type="device">
  <diagram name="Page-1" id="fa3b1fYeh5rV2qAVABvx">
    <mxGraphModel dx="1584" dy="1582" grid="1" gridSize="10" guides="1" tooltips="1" connect="1" arrows="1" fold="1" page="1" pageScale="1" pageWidth="850" pageHeight="1100" math="0" shadow="0">
      <root>
        <mxCell id="0" />
        <mxCell id="1" parent="0" />
        <mxCell id="AaAI17sAa2OLWKaY4wJc-48" style="rounded=0;orthogonalLoop=1;jettySize=auto;html=1;exitX=0;exitY=0.25;exitDx=0;exitDy=0;entryX=0.5;entryY=1;entryDx=0;entryDy=0;endArrow=none;endFill=0;" parent="1" source="AaAI17sAa2OLWKaY4wJc-3" target="AaAI17sAa2OLWKaY4wJc-43" edge="1">
          <mxGeometry relative="1" as="geometry" />
        </mxCell>
        <mxCell id="AaAI17sAa2OLWKaY4wJc-50" style="rounded=0;orthogonalLoop=1;jettySize=auto;html=1;exitX=0.75;exitY=0;exitDx=0;exitDy=0;entryX=0;entryY=1;entryDx=0;entryDy=0;endArrow=none;endFill=0;" parent="1" source="AaAI17sAa2OLWKaY4wJc-3" target="AaAI17sAa2OLWKaY4wJc-44" edge="1">
          <mxGeometry relative="1" as="geometry" />
        </mxCell>
        <mxCell id="AaAI17sAa2OLWKaY4wJc-51" style="rounded=0;orthogonalLoop=1;jettySize=auto;html=1;exitX=1;exitY=0.25;exitDx=0;exitDy=0;entryX=0;entryY=1;entryDx=0;entryDy=0;startArrow=none;startFill=0;endArrow=none;endFill=0;" parent="1" source="AaAI17sAa2OLWKaY4wJc-3" target="AaAI17sAa2OLWKaY4wJc-45" edge="1">
          <mxGeometry relative="1" as="geometry" />
        </mxCell>
        <mxCell id="AaAI17sAa2OLWKaY4wJc-3" value="&lt;font style=&quot;font-size: 18px;&quot;&gt;Stock&lt;/font&gt;" style="whiteSpace=wrap;html=1;align=center;fillColor=#647687;fontColor=#ffffff;strokeColor=#314354;" parent="1" vertex="1">
          <mxGeometry x="400" y="130" width="210" height="70" as="geometry" />
        </mxCell>
        <mxCell id="AaAI17sAa2OLWKaY4wJc-31" style="rounded=0;orthogonalLoop=1;jettySize=auto;html=1;exitX=0;exitY=0;exitDx=0;exitDy=0;entryX=0.5;entryY=1;entryDx=0;entryDy=0;endArrow=none;endFill=0;" parent="1" source="AaAI17sAa2OLWKaY4wJc-10" target="AaAI17sAa2OLWKaY4wJc-17" edge="1">
          <mxGeometry relative="1" as="geometry" />
        </mxCell>
        <mxCell id="AaAI17sAa2OLWKaY4wJc-32" style="rounded=0;orthogonalLoop=1;jettySize=auto;html=1;exitX=0.373;exitY=1;exitDx=0;exitDy=0;entryX=1;entryY=0;entryDx=0;entryDy=0;startArrow=none;startFill=0;endArrow=none;endFill=0;exitPerimeter=0;" parent="1" source="AaAI17sAa2OLWKaY4wJc-10" target="AaAI17sAa2OLWKaY4wJc-18" edge="1">
          <mxGeometry relative="1" as="geometry">
            <mxPoint x="27.499999999999773" y="942.5" as="sourcePoint" />
          </mxGeometry>
        </mxCell>
        <mxCell id="AaAI17sAa2OLWKaY4wJc-33" style="rounded=0;orthogonalLoop=1;jettySize=auto;html=1;exitX=0.5;exitY=1;exitDx=0;exitDy=0;entryX=0.5;entryY=0;entryDx=0;entryDy=0;endArrow=none;endFill=0;" parent="1" source="AaAI17sAa2OLWKaY4wJc-10" target="AaAI17sAa2OLWKaY4wJc-19" edge="1">
          <mxGeometry relative="1" as="geometry">
            <mxPoint x="79.99999999999977" y="942.5" as="sourcePoint" />
          </mxGeometry>
        </mxCell>
        <mxCell id="AaAI17sAa2OLWKaY4wJc-34" style="rounded=0;orthogonalLoop=1;jettySize=auto;html=1;exitX=0.75;exitY=1;exitDx=0;exitDy=0;entryX=0.5;entryY=0;entryDx=0;entryDy=0;endArrow=none;endFill=0;" parent="1" source="AaAI17sAa2OLWKaY4wJc-10" target="AaAI17sAa2OLWKaY4wJc-20" edge="1">
          <mxGeometry relative="1" as="geometry">
            <mxPoint x="132.49999999999977" y="942.5" as="sourcePoint" />
          </mxGeometry>
        </mxCell>
        <mxCell id="AaAI17sAa2OLWKaY4wJc-36" style="rounded=0;orthogonalLoop=1;jettySize=auto;html=1;exitX=0.25;exitY=1;exitDx=0;exitDy=0;entryX=1;entryY=0;entryDx=0;entryDy=0;endArrow=none;endFill=0;" parent="1" source="AaAI17sAa2OLWKaY4wJc-10" target="AaAI17sAa2OLWKaY4wJc-35" edge="1">
          <mxGeometry relative="1" as="geometry">
            <mxPoint x="-257.5" y="797.5" as="sourcePoint" />
          </mxGeometry>
        </mxCell>
        <mxCell id="AaAI17sAa2OLWKaY4wJc-99" style="rounded=0;orthogonalLoop=1;jettySize=auto;html=1;exitX=1;exitY=0.75;exitDx=0;exitDy=0;entryX=0;entryY=0;entryDx=0;entryDy=0;endArrow=none;endFill=0;" parent="1" source="AaAI17sAa2OLWKaY4wJc-10" target="AaAI17sAa2OLWKaY4wJc-98" edge="1">
          <mxGeometry relative="1" as="geometry" />
        </mxCell>
        <mxCell id="w3gEIACgnD2J5lPuFtTi-9" style="rounded=0;orthogonalLoop=1;jettySize=auto;html=1;entryX=1;entryY=0.5;entryDx=0;entryDy=0;endArrow=none;endFill=0;exitX=0;exitY=0.5;exitDx=0;exitDy=0;" parent="1" source="AaAI17sAa2OLWKaY4wJc-10" edge="1">
          <mxGeometry relative="1" as="geometry">
            <mxPoint x="-50" y="747.5" as="sourcePoint" />
            <mxPoint x="-120" y="747.5" as="targetPoint" />
          </mxGeometry>
        </mxCell>
        <mxCell id="w3gEIACgnD2J5lPuFtTi-68" style="rounded=0;orthogonalLoop=1;jettySize=auto;html=1;exitX=0.5;exitY=0;exitDx=0;exitDy=0;entryX=0.5;entryY=1;entryDx=0;entryDy=0;shape=link;" parent="1" source="AaAI17sAa2OLWKaY4wJc-10" target="w3gEIACgnD2J5lPuFtTi-67" edge="1">
          <mxGeometry relative="1" as="geometry" />
        </mxCell>
        <mxCell id="AaAI17sAa2OLWKaY4wJc-10" value="&lt;font style=&quot;font-size: 18px;&quot;&gt;User&lt;/font&gt;" style="whiteSpace=wrap;html=1;align=center;fillColor=#647687;fontColor=#ffffff;strokeColor=#314354;" parent="1" vertex="1">
          <mxGeometry x="80" y="712.5" width="210" height="70" as="geometry" />
        </mxCell>
        <mxCell id="AaAI17sAa2OLWKaY4wJc-89" style="rounded=0;orthogonalLoop=1;jettySize=auto;html=1;exitX=0.25;exitY=1;exitDx=0;exitDy=0;entryX=0.5;entryY=0;entryDx=0;entryDy=0;endArrow=none;endFill=0;" parent="1" source="AaAI17sAa2OLWKaY4wJc-12" target="AaAI17sAa2OLWKaY4wJc-88" edge="1">
          <mxGeometry relative="1" as="geometry" />
        </mxCell>
        <mxCell id="AaAI17sAa2OLWKaY4wJc-91" style="rounded=0;orthogonalLoop=1;jettySize=auto;html=1;exitX=0;exitY=0.5;exitDx=0;exitDy=0;entryX=1;entryY=0;entryDx=0;entryDy=0;endArrow=none;endFill=0;" parent="1" source="AaAI17sAa2OLWKaY4wJc-12" target="AaAI17sAa2OLWKaY4wJc-78" edge="1">
          <mxGeometry relative="1" as="geometry" />
        </mxCell>
        <mxCell id="AaAI17sAa2OLWKaY4wJc-92" style="rounded=0;orthogonalLoop=1;jettySize=auto;html=1;exitX=0;exitY=0.25;exitDx=0;exitDy=0;entryX=1;entryY=0.5;entryDx=0;entryDy=0;endArrow=none;endFill=0;" parent="1" source="AaAI17sAa2OLWKaY4wJc-12" target="AaAI17sAa2OLWKaY4wJc-77" edge="1">
          <mxGeometry relative="1" as="geometry" />
        </mxCell>
        <mxCell id="AaAI17sAa2OLWKaY4wJc-93" style="rounded=0;orthogonalLoop=1;jettySize=auto;html=1;exitX=0;exitY=0;exitDx=0;exitDy=0;entryX=1;entryY=1;entryDx=0;entryDy=0;endArrow=none;endFill=0;" parent="1" source="AaAI17sAa2OLWKaY4wJc-12" target="AaAI17sAa2OLWKaY4wJc-76" edge="1">
          <mxGeometry relative="1" as="geometry" />
        </mxCell>
        <mxCell id="AaAI17sAa2OLWKaY4wJc-94" style="rounded=0;orthogonalLoop=1;jettySize=auto;html=1;exitX=0.25;exitY=0;exitDx=0;exitDy=0;entryX=0.5;entryY=1;entryDx=0;entryDy=0;endArrow=none;endFill=0;" parent="1" source="AaAI17sAa2OLWKaY4wJc-12" target="AaAI17sAa2OLWKaY4wJc-81" edge="1">
          <mxGeometry relative="1" as="geometry" />
        </mxCell>
        <mxCell id="AaAI17sAa2OLWKaY4wJc-95" style="rounded=0;orthogonalLoop=1;jettySize=auto;html=1;exitX=0.5;exitY=0;exitDx=0;exitDy=0;entryX=0.5;entryY=1;entryDx=0;entryDy=0;endArrow=none;endFill=0;" parent="1" source="AaAI17sAa2OLWKaY4wJc-12" target="AaAI17sAa2OLWKaY4wJc-87" edge="1">
          <mxGeometry relative="1" as="geometry" />
        </mxCell>
        <mxCell id="AaAI17sAa2OLWKaY4wJc-12" value="&lt;font style=&quot;font-size: 18px;&quot;&gt;Transaction&lt;/font&gt;" style="whiteSpace=wrap;html=1;align=center;fillColor=#647687;fontColor=#ffffff;strokeColor=#314354;" parent="1" vertex="1">
          <mxGeometry x="-60" y="70" width="210" height="70" as="geometry" />
        </mxCell>
        <mxCell id="AaAI17sAa2OLWKaY4wJc-64" style="rounded=0;orthogonalLoop=1;jettySize=auto;html=1;exitX=0.75;exitY=0;exitDx=0;exitDy=0;entryX=0.5;entryY=1;entryDx=0;entryDy=0;endArrow=none;endFill=0;" parent="1" source="AaAI17sAa2OLWKaY4wJc-13" target="AaAI17sAa2OLWKaY4wJc-58" edge="1">
          <mxGeometry relative="1" as="geometry" />
        </mxCell>
        <mxCell id="AaAI17sAa2OLWKaY4wJc-65" style="rounded=0;orthogonalLoop=1;jettySize=auto;html=1;exitX=1;exitY=0;exitDx=0;exitDy=0;entryX=0;entryY=1;entryDx=0;entryDy=0;endArrow=none;endFill=0;" parent="1" source="AaAI17sAa2OLWKaY4wJc-13" target="AaAI17sAa2OLWKaY4wJc-60" edge="1">
          <mxGeometry relative="1" as="geometry" />
        </mxCell>
        <mxCell id="AaAI17sAa2OLWKaY4wJc-66" style="rounded=0;orthogonalLoop=1;jettySize=auto;html=1;exitX=1;exitY=0.25;exitDx=0;exitDy=0;entryX=0;entryY=1;entryDx=0;entryDy=0;endArrow=none;endFill=0;" parent="1" source="AaAI17sAa2OLWKaY4wJc-13" target="AaAI17sAa2OLWKaY4wJc-63" edge="1">
          <mxGeometry relative="1" as="geometry" />
        </mxCell>
        <mxCell id="AaAI17sAa2OLWKaY4wJc-67" style="rounded=0;orthogonalLoop=1;jettySize=auto;html=1;exitX=1;exitY=0.75;exitDx=0;exitDy=0;entryX=0;entryY=0.5;entryDx=0;entryDy=0;endArrow=none;endFill=0;" parent="1" source="AaAI17sAa2OLWKaY4wJc-13" target="AaAI17sAa2OLWKaY4wJc-62" edge="1">
          <mxGeometry relative="1" as="geometry" />
        </mxCell>
        <mxCell id="AaAI17sAa2OLWKaY4wJc-68" style="rounded=0;orthogonalLoop=1;jettySize=auto;html=1;exitX=0.75;exitY=1;exitDx=0;exitDy=0;entryX=0;entryY=0;entryDx=0;entryDy=0;endArrow=none;endFill=0;" parent="1" source="AaAI17sAa2OLWKaY4wJc-13" target="AaAI17sAa2OLWKaY4wJc-61" edge="1">
          <mxGeometry relative="1" as="geometry" />
        </mxCell>
        <mxCell id="OnGRVC2OFB9PsiN4P2nI-3" style="rounded=0;orthogonalLoop=1;jettySize=auto;html=1;exitX=0.25;exitY=1;exitDx=0;exitDy=0;entryX=0.5;entryY=0;entryDx=0;entryDy=0;endArrow=none;endFill=0;" parent="1" source="AaAI17sAa2OLWKaY4wJc-13" target="OnGRVC2OFB9PsiN4P2nI-2" edge="1">
          <mxGeometry relative="1" as="geometry" />
        </mxCell>
        <mxCell id="w3gEIACgnD2J5lPuFtTi-64" style="rounded=0;orthogonalLoop=1;jettySize=auto;html=1;exitX=0.5;exitY=1;exitDx=0;exitDy=0;entryX=0.5;entryY=0;entryDx=0;entryDy=0;shape=link;" parent="1" source="AaAI17sAa2OLWKaY4wJc-13" target="w3gEIACgnD2J5lPuFtTi-61" edge="1">
          <mxGeometry relative="1" as="geometry" />
        </mxCell>
        <mxCell id="AaAI17sAa2OLWKaY4wJc-13" value="&lt;font style=&quot;font-size: 18px;&quot;&gt;Portfolio&lt;/font&gt;" style="whiteSpace=wrap;html=1;align=center;fillColor=#647687;fontColor=#ffffff;strokeColor=#314354;" parent="1" vertex="1">
          <mxGeometry x="740" y="370" width="210" height="70" as="geometry" />
        </mxCell>
        <mxCell id="AaAI17sAa2OLWKaY4wJc-21" style="rounded=0;orthogonalLoop=1;jettySize=auto;html=1;exitX=0.5;exitY=0;exitDx=0;exitDy=0;endArrow=none;endFill=0;entryX=0;entryY=1;entryDx=0;entryDy=0;" parent="1" source="AaAI17sAa2OLWKaY4wJc-25" target="AaAI17sAa2OLWKaY4wJc-20" edge="1">
          <mxGeometry relative="1" as="geometry">
            <mxPoint x="190" y="961.44" as="targetPoint" />
            <mxPoint x="217.26504975671287" y="1010.382198430844" as="sourcePoint" />
          </mxGeometry>
        </mxCell>
        <mxCell id="AaAI17sAa2OLWKaY4wJc-16" value="PhoneNumber" style="ellipse;whiteSpace=wrap;html=1;align=center;strokeColor=#23445d;fillColor=#bac8d3;" parent="1" vertex="1">
          <mxGeometry x="-45" y="632.5" width="120" height="60" as="geometry" />
        </mxCell>
        <mxCell id="AaAI17sAa2OLWKaY4wJc-17" value="&lt;font style=&quot;font-size: 14px;&quot;&gt;&lt;u&gt;UserID&lt;/u&gt;&lt;/font&gt;" style="ellipse;whiteSpace=wrap;html=1;align=center;strokeColor=#23445d;fillColor=#bac8d3;" parent="1" vertex="1">
          <mxGeometry x="-170" y="627.5" width="120" height="60" as="geometry" />
        </mxCell>
        <mxCell id="AaAI17sAa2OLWKaY4wJc-18" value="E-mail" style="ellipse;whiteSpace=wrap;html=1;align=center;fillColor=#bac8d3;strokeColor=#23445d;" parent="1" vertex="1">
          <mxGeometry x="-65" y="887.5" width="120" height="60" as="geometry" />
        </mxCell>
        <mxCell id="AaAI17sAa2OLWKaY4wJc-19" value="Password" style="ellipse;whiteSpace=wrap;html=1;align=center;fillColor=#bac8d3;strokeColor=#23445d;" parent="1" vertex="1">
          <mxGeometry x="70" y="852.5" width="120" height="60" as="geometry" />
        </mxCell>
        <mxCell id="AaAI17sAa2OLWKaY4wJc-20" value="Name" style="ellipse;whiteSpace=wrap;html=1;align=center;strokeColor=#23445d;fillColor=#bac8d3;" parent="1" vertex="1">
          <mxGeometry x="185" y="827.5" width="120" height="60" as="geometry" />
        </mxCell>
        <mxCell id="AaAI17sAa2OLWKaY4wJc-25" value="FirstName" style="ellipse;whiteSpace=wrap;html=1;align=center;strokeColor=#23445d;fillColor=#bac8d3;" parent="1" vertex="1">
          <mxGeometry x="155" y="902.5" width="80" height="50" as="geometry" />
        </mxCell>
        <mxCell id="AaAI17sAa2OLWKaY4wJc-27" value="LastName" style="ellipse;whiteSpace=wrap;html=1;align=center;strokeColor=#23445d;fillColor=#bac8d3;" parent="1" vertex="1">
          <mxGeometry x="260" y="892.5" width="80" height="50" as="geometry" />
        </mxCell>
        <mxCell id="AaAI17sAa2OLWKaY4wJc-29" style="rounded=0;orthogonalLoop=1;jettySize=auto;html=1;exitX=1;exitY=1;exitDx=0;exitDy=0;endArrow=none;endFill=0;entryX=0.5;entryY=0;entryDx=0;entryDy=0;" parent="1" source="AaAI17sAa2OLWKaY4wJc-20" target="AaAI17sAa2OLWKaY4wJc-27" edge="1">
          <mxGeometry relative="1" as="geometry">
            <mxPoint x="250" y="952.44" as="targetPoint" />
            <mxPoint x="262.73495024328713" y="892.4978015691561" as="sourcePoint" />
          </mxGeometry>
        </mxCell>
        <mxCell id="AaAI17sAa2OLWKaY4wJc-30" style="rounded=0;orthogonalLoop=1;jettySize=auto;html=1;exitX=0.25;exitY=0;exitDx=0;exitDy=0;entryX=1;entryY=1;entryDx=0;entryDy=0;endArrow=none;endFill=0;" parent="1" source="AaAI17sAa2OLWKaY4wJc-10" target="AaAI17sAa2OLWKaY4wJc-16" edge="1">
          <mxGeometry relative="1" as="geometry" />
        </mxCell>
        <mxCell id="AaAI17sAa2OLWKaY4wJc-35" value="BDate" style="ellipse;whiteSpace=wrap;html=1;align=center;fillColor=#bac8d3;strokeColor=#23445d;" parent="1" vertex="1">
          <mxGeometry x="-100" y="812.5" width="120" height="60" as="geometry" />
        </mxCell>
        <mxCell id="AaAI17sAa2OLWKaY4wJc-38" style="rounded=0;orthogonalLoop=1;jettySize=auto;html=1;exitX=0;exitY=0.5;exitDx=0;exitDy=0;shape=link;" parent="1" source="w3gEIACgnD2J5lPuFtTi-61" edge="1">
          <mxGeometry relative="1" as="geometry">
            <mxPoint x="396.96000000000004" y="747.9200000000001" as="sourcePoint" />
            <mxPoint x="290" y="747.5" as="targetPoint" />
          </mxGeometry>
        </mxCell>
        <mxCell id="AaAI17sAa2OLWKaY4wJc-39" style="rounded=0;orthogonalLoop=1;jettySize=auto;html=1;exitX=0.96;exitY=0.507;exitDx=0;exitDy=0;entryX=0;entryY=0.5;entryDx=0;entryDy=0;shape=link;exitPerimeter=0;" parent="1" source="AaAI17sAa2OLWKaY4wJc-37" target="AaAI17sAa2OLWKaY4wJc-13" edge="1">
          <mxGeometry relative="1" as="geometry" />
        </mxCell>
        <mxCell id="AaAI17sAa2OLWKaY4wJc-37" value="Has" style="shape=rhombus;perimeter=rhombusPerimeter;whiteSpace=wrap;html=1;align=center;" parent="1" vertex="1">
          <mxGeometry x="460" y="375" width="120" height="60" as="geometry" />
        </mxCell>
        <mxCell id="AaAI17sAa2OLWKaY4wJc-40" value="1" style="text;html=1;align=center;verticalAlign=middle;resizable=0;points=[];autosize=1;strokeColor=none;fillColor=none;" parent="1" vertex="1">
          <mxGeometry x="565" y="380" width="30" height="30" as="geometry" />
        </mxCell>
        <mxCell id="AaAI17sAa2OLWKaY4wJc-41" value="&lt;font style=&quot;font-size: 12px;&quot;&gt;1&lt;/font&gt;" style="text;html=1;align=center;verticalAlign=middle;resizable=0;points=[];autosize=1;strokeColor=none;fillColor=none;" parent="1" vertex="1">
          <mxGeometry x="770" y="747.5" width="30" height="30" as="geometry" />
        </mxCell>
        <mxCell id="AaAI17sAa2OLWKaY4wJc-42" value="CompanyName" style="ellipse;whiteSpace=wrap;html=1;align=center;fillColor=#bac8d3;strokeColor=#23445d;" parent="1" vertex="1">
          <mxGeometry x="310" y="-50" width="120" height="60" as="geometry" />
        </mxCell>
        <mxCell id="AaAI17sAa2OLWKaY4wJc-43" value="Symbol" style="ellipse;whiteSpace=wrap;html=1;align=center;fillColor=#bac8d3;strokeColor=#23445d;" parent="1" vertex="1">
          <mxGeometry x="245" y="10" width="120" height="60" as="geometry" />
        </mxCell>
        <mxCell id="AaAI17sAa2OLWKaY4wJc-44" value="&lt;font style=&quot;font-size: 14px;&quot;&gt;&lt;u&gt;StockID&lt;/u&gt;&lt;/font&gt;" style="ellipse;whiteSpace=wrap;html=1;align=center;fillColor=#bac8d3;strokeColor=#23445d;" parent="1" vertex="1">
          <mxGeometry x="625" width="120" height="60" as="geometry" />
        </mxCell>
        <mxCell id="AaAI17sAa2OLWKaY4wJc-45" value="Price" style="ellipse;whiteSpace=wrap;html=1;align=center;fillColor=#bac8d3;strokeColor=#23445d;" parent="1" vertex="1">
          <mxGeometry x="680" y="70" width="120" height="60" as="geometry" />
        </mxCell>
        <mxCell id="AaAI17sAa2OLWKaY4wJc-49" style="rounded=0;orthogonalLoop=1;jettySize=auto;html=1;exitX=0.25;exitY=0;exitDx=0;exitDy=0;entryX=1;entryY=1;entryDx=0;entryDy=0;endArrow=none;endFill=0;" parent="1" source="AaAI17sAa2OLWKaY4wJc-3" target="AaAI17sAa2OLWKaY4wJc-42" edge="1">
          <mxGeometry relative="1" as="geometry" />
        </mxCell>
        <mxCell id="AaAI17sAa2OLWKaY4wJc-53" style="rounded=0;orthogonalLoop=1;jettySize=auto;html=1;exitX=0.023;exitY=0.501;exitDx=0;exitDy=0;entryX=1;entryY=0.5;entryDx=0;entryDy=0;exitPerimeter=0;endArrow=none;endFill=0;" parent="1" source="AaAI17sAa2OLWKaY4wJc-52" target="AaAI17sAa2OLWKaY4wJc-3" edge="1">
          <mxGeometry relative="1" as="geometry" />
        </mxCell>
        <mxCell id="AaAI17sAa2OLWKaY4wJc-54" style="rounded=0;orthogonalLoop=1;jettySize=auto;html=1;exitX=0.498;exitY=0.975;exitDx=0;exitDy=0;entryX=0.5;entryY=0;entryDx=0;entryDy=0;exitPerimeter=0;endArrow=none;endFill=0;" parent="1" source="AaAI17sAa2OLWKaY4wJc-52" target="AaAI17sAa2OLWKaY4wJc-13" edge="1">
          <mxGeometry relative="1" as="geometry" />
        </mxCell>
        <mxCell id="AaAI17sAa2OLWKaY4wJc-52" value="Contains" style="shape=rhombus;perimeter=rhombusPerimeter;whiteSpace=wrap;html=1;align=center;" parent="1" vertex="1">
          <mxGeometry x="785" y="135" width="120" height="60" as="geometry" />
        </mxCell>
        <mxCell id="AaAI17sAa2OLWKaY4wJc-56" value="1" style="text;html=1;align=center;verticalAlign=middle;resizable=0;points=[];autosize=1;strokeColor=none;fillColor=none;" parent="1" vertex="1">
          <mxGeometry x="840" y="190" width="30" height="30" as="geometry" />
        </mxCell>
        <mxCell id="AaAI17sAa2OLWKaY4wJc-57" value="N" style="text;html=1;align=center;verticalAlign=middle;resizable=0;points=[];autosize=1;strokeColor=none;fillColor=none;" parent="1" vertex="1">
          <mxGeometry x="770" y="140" width="30" height="30" as="geometry" />
        </mxCell>
        <mxCell id="AaAI17sAa2OLWKaY4wJc-58" value="UserID" style="ellipse;whiteSpace=wrap;html=1;align=center;fillColor=#bac8d3;strokeColor=#23445d;" parent="1" vertex="1">
          <mxGeometry x="860" y="240" width="120" height="60" as="geometry" />
        </mxCell>
        <mxCell id="AaAI17sAa2OLWKaY4wJc-60" value="&lt;font style=&quot;font-size: 14px;&quot;&gt;&lt;u&gt;PortfolioID&lt;/u&gt;&lt;/font&gt;" style="ellipse;whiteSpace=wrap;html=1;align=center;fillColor=#bac8d3;strokeColor=#23445d;" parent="1" vertex="1">
          <mxGeometry x="990" y="260" width="120" height="60" as="geometry" />
        </mxCell>
        <mxCell id="AaAI17sAa2OLWKaY4wJc-61" value="Balance" style="ellipse;whiteSpace=wrap;html=1;align=center;fillColor=#bac8d3;strokeColor=#23445d;" parent="1" vertex="1">
          <mxGeometry x="930" y="460" width="120" height="60" as="geometry" />
        </mxCell>
        <mxCell id="AaAI17sAa2OLWKaY4wJc-62" value="CreatedDate" style="ellipse;whiteSpace=wrap;html=1;align=center;fillColor=#bac8d3;strokeColor=#23445d;" parent="1" vertex="1">
          <mxGeometry x="1020" y="400" width="120" height="60" as="geometry" />
        </mxCell>
        <mxCell id="AaAI17sAa2OLWKaY4wJc-63" value="Quantity" style="ellipse;whiteSpace=wrap;html=1;align=center;fillColor=#bac8d3;strokeColor=#23445d;" parent="1" vertex="1">
          <mxGeometry x="1020" y="330" width="120" height="60" as="geometry" />
        </mxCell>
        <mxCell id="AaAI17sAa2OLWKaY4wJc-71" style="rounded=0;orthogonalLoop=1;jettySize=auto;html=1;entryX=0.5;entryY=1;entryDx=0;entryDy=0;shape=link;exitX=0.499;exitY=0.064;exitDx=0;exitDy=0;exitPerimeter=0;" parent="1" source="AaAI17sAa2OLWKaY4wJc-69" target="AaAI17sAa2OLWKaY4wJc-12" edge="1">
          <mxGeometry relative="1" as="geometry" />
        </mxCell>
        <mxCell id="AaAI17sAa2OLWKaY4wJc-69" value="Make" style="shape=rhombus;perimeter=rhombusPerimeter;whiteSpace=wrap;html=1;align=center;" parent="1" vertex="1">
          <mxGeometry x="120" y="230" width="120" height="60" as="geometry" />
        </mxCell>
        <mxCell id="AaAI17sAa2OLWKaY4wJc-72" value="N" style="text;html=1;align=center;verticalAlign=middle;resizable=0;points=[];autosize=1;strokeColor=none;fillColor=none;" parent="1" vertex="1">
          <mxGeometry x="140" y="218" width="30" height="30" as="geometry" />
        </mxCell>
        <mxCell id="AaAI17sAa2OLWKaY4wJc-74" value="1" style="text;html=1;align=center;verticalAlign=middle;resizable=0;points=[];autosize=1;strokeColor=none;fillColor=none;" parent="1" vertex="1">
          <mxGeometry x="155" y="280" width="30" height="30" as="geometry" />
        </mxCell>
        <mxCell id="AaAI17sAa2OLWKaY4wJc-76" value="BotID" style="ellipse;whiteSpace=wrap;html=1;align=center;fillColor=#bac8d3;strokeColor=#23445d;" parent="1" vertex="1">
          <mxGeometry x="-210" y="-20" width="120" height="60" as="geometry" />
        </mxCell>
        <mxCell id="AaAI17sAa2OLWKaY4wJc-77" value="&lt;font style=&quot;font-size: 14px;&quot;&gt;&lt;u&gt;TransactionID&lt;/u&gt;&lt;/font&gt;" style="ellipse;whiteSpace=wrap;html=1;align=center;fillColor=#bac8d3;strokeColor=#23445d;" parent="1" vertex="1">
          <mxGeometry x="-240" y="50" width="120" height="60" as="geometry" />
        </mxCell>
        <mxCell id="AaAI17sAa2OLWKaY4wJc-78" value="Quantity" style="ellipse;whiteSpace=wrap;html=1;align=center;fillColor=#bac8d3;strokeColor=#23445d;" parent="1" vertex="1">
          <mxGeometry x="-230" y="120" width="120" height="60" as="geometry" />
        </mxCell>
        <mxCell id="AaAI17sAa2OLWKaY4wJc-81" value="Price" style="ellipse;whiteSpace=wrap;html=1;align=center;fillColor=#bac8d3;strokeColor=#23445d;" parent="1" vertex="1">
          <mxGeometry x="-95" y="-70" width="120" height="60" as="geometry" />
        </mxCell>
        <mxCell id="AaAI17sAa2OLWKaY4wJc-83" style="rounded=0;orthogonalLoop=1;jettySize=auto;html=1;exitX=0;exitY=0.5;exitDx=0;exitDy=0;shape=link;entryX=1.007;entryY=0.045;entryDx=0;entryDy=0;entryPerimeter=0;" parent="1" source="AaAI17sAa2OLWKaY4wJc-82" target="AaAI17sAa2OLWKaY4wJc-12" edge="1">
          <mxGeometry relative="1" as="geometry">
            <mxPoint x="150.00000000000023" y="139.99999999999977" as="targetPoint" />
          </mxGeometry>
        </mxCell>
        <mxCell id="AaAI17sAa2OLWKaY4wJc-84" style="rounded=0;orthogonalLoop=1;jettySize=auto;html=1;exitX=1;exitY=0.5;exitDx=0;exitDy=0;entryX=0;entryY=0.5;entryDx=0;entryDy=0;endArrow=none;endFill=0;" parent="1" source="AaAI17sAa2OLWKaY4wJc-82" target="AaAI17sAa2OLWKaY4wJc-3" edge="1">
          <mxGeometry relative="1" as="geometry" />
        </mxCell>
        <mxCell id="AaAI17sAa2OLWKaY4wJc-82" value="Has" style="shape=rhombus;perimeter=rhombusPerimeter;whiteSpace=wrap;html=1;align=center;" parent="1" vertex="1">
          <mxGeometry x="220" y="110" width="120" height="60" as="geometry" />
        </mxCell>
        <mxCell id="AaAI17sAa2OLWKaY4wJc-85" value="1" style="text;html=1;align=center;verticalAlign=middle;resizable=0;points=[];autosize=1;strokeColor=none;fillColor=none;" parent="1" vertex="1">
          <mxGeometry x="205" y="115" width="30" height="30" as="geometry" />
        </mxCell>
        <mxCell id="AaAI17sAa2OLWKaY4wJc-86" value="N" style="text;html=1;align=center;verticalAlign=middle;resizable=0;points=[];autosize=1;strokeColor=none;fillColor=none;" parent="1" vertex="1">
          <mxGeometry x="330" y="115" width="30" height="30" as="geometry" />
        </mxCell>
        <mxCell id="AaAI17sAa2OLWKaY4wJc-87" value="Date" style="ellipse;whiteSpace=wrap;html=1;align=center;fillColor=#bac8d3;strokeColor=#23445d;" parent="1" vertex="1">
          <mxGeometry x="45" y="-60" width="120" height="60" as="geometry" />
        </mxCell>
        <mxCell id="AaAI17sAa2OLWKaY4wJc-88" value="CompanyName" style="ellipse;whiteSpace=wrap;html=1;align=center;fillColor=#bac8d3;strokeColor=#23445d;" parent="1" vertex="1">
          <mxGeometry x="-55" y="190" width="120" height="60" as="geometry" />
        </mxCell>
        <mxCell id="AaAI17sAa2OLWKaY4wJc-98" value="Username" style="ellipse;whiteSpace=wrap;html=1;align=center;strokeColor=#23445d;fillColor=#bac8d3;" parent="1" vertex="1">
          <mxGeometry x="285" y="792.5" width="120" height="60" as="geometry" />
        </mxCell>
        <mxCell id="AaAI17sAa2OLWKaY4wJc-136" value="ProtfolioID" style="ellipse;whiteSpace=wrap;html=1;align=center;fillColor=#bac8d3;strokeColor=#23445d;" parent="1" vertex="1">
          <mxGeometry x="570" y="-70" width="120" height="60" as="geometry" />
        </mxCell>
        <mxCell id="AaAI17sAa2OLWKaY4wJc-139" style="rounded=0;orthogonalLoop=1;jettySize=auto;html=1;exitX=0.5;exitY=1;exitDx=0;exitDy=0;entryX=0.621;entryY=0.001;entryDx=0;entryDy=0;entryPerimeter=0;endArrow=none;endFill=0;" parent="1" source="AaAI17sAa2OLWKaY4wJc-136" target="AaAI17sAa2OLWKaY4wJc-3" edge="1">
          <mxGeometry relative="1" as="geometry" />
        </mxCell>
        <mxCell id="OnGRVC2OFB9PsiN4P2nI-2" value="CurrentDate" style="ellipse;whiteSpace=wrap;html=1;align=center;fillColor=#bac8d3;strokeColor=#23445d;" parent="1" vertex="1">
          <mxGeometry x="650" y="495" width="120" height="60" as="geometry" />
        </mxCell>
        <mxCell id="RVyVUnFgsaCwbEBsSRUZ-153" value="TransactionID" style="ellipse;whiteSpace=wrap;html=1;align=center;fillColor=#bac8d3;strokeColor=#23445d;" parent="1" vertex="1">
          <mxGeometry x="440" y="-60" width="120" height="60" as="geometry" />
        </mxCell>
        <mxCell id="RVyVUnFgsaCwbEBsSRUZ-154" style="rounded=0;orthogonalLoop=1;jettySize=auto;html=1;exitX=0.5;exitY=0;exitDx=0;exitDy=0;entryX=0.5;entryY=1;entryDx=0;entryDy=0;endArrow=none;endFill=0;" parent="1" source="AaAI17sAa2OLWKaY4wJc-3" target="RVyVUnFgsaCwbEBsSRUZ-153" edge="1">
          <mxGeometry relative="1" as="geometry" />
        </mxCell>
        <mxCell id="w3gEIACgnD2J5lPuFtTi-8" style="rounded=0;orthogonalLoop=1;jettySize=auto;html=1;entryX=0.034;entryY=0.5;entryDx=0;entryDy=0;shape=link;entryPerimeter=0;exitX=1;exitY=0.5;exitDx=0;exitDy=0;" parent="1" source="w3gEIACgnD2J5lPuFtTi-51" target="w3gEIACgnD2J5lPuFtTi-7" edge="1">
          <mxGeometry relative="1" as="geometry">
            <mxPoint x="-330" y="740" as="sourcePoint" />
          </mxGeometry>
        </mxCell>
        <mxCell id="w3gEIACgnD2J5lPuFtTi-14" style="rounded=0;orthogonalLoop=1;jettySize=auto;html=1;exitX=0;exitY=0;exitDx=0;exitDy=0;entryX=1;entryY=1;entryDx=0;entryDy=0;endArrow=none;endFill=0;" parent="1" source="w3gEIACgnD2J5lPuFtTi-1" target="w3gEIACgnD2J5lPuFtTi-2" edge="1">
          <mxGeometry relative="1" as="geometry" />
        </mxCell>
        <mxCell id="w3gEIACgnD2J5lPuFtTi-15" style="rounded=0;orthogonalLoop=1;jettySize=auto;html=1;exitX=0.25;exitY=0;exitDx=0;exitDy=0;entryX=0.5;entryY=1;entryDx=0;entryDy=0;endArrow=none;endFill=0;" parent="1" source="w3gEIACgnD2J5lPuFtTi-1" target="w3gEIACgnD2J5lPuFtTi-3" edge="1">
          <mxGeometry relative="1" as="geometry" />
        </mxCell>
        <mxCell id="w3gEIACgnD2J5lPuFtTi-1" value="Suggestion" style="whiteSpace=wrap;html=1;align=center;fillColor=#647687;fontColor=#ffffff;strokeColor=#314354;" parent="1" vertex="1">
          <mxGeometry x="-460" y="368" width="210" height="70" as="geometry" />
        </mxCell>
        <mxCell id="w3gEIACgnD2J5lPuFtTi-2" value="Answer" style="ellipse;whiteSpace=wrap;html=1;align=center;fillColor=#bac8d3;strokeColor=#23445d;" parent="1" vertex="1">
          <mxGeometry x="-600" y="306" width="120" height="60" as="geometry" />
        </mxCell>
        <mxCell id="w3gEIACgnD2J5lPuFtTi-3" value="SuggestionType" style="ellipse;whiteSpace=wrap;html=1;align=center;fillColor=#bac8d3;strokeColor=#23445d;" parent="1" vertex="1">
          <mxGeometry x="-490" y="248" width="120" height="60" as="geometry" />
        </mxCell>
        <mxCell id="w3gEIACgnD2J5lPuFtTi-4" value="&lt;u&gt;SuggestionID&lt;br&gt;&lt;/u&gt;" style="ellipse;whiteSpace=wrap;html=1;align=center;fillColor=#bac8d3;strokeColor=#23445d;" parent="1" vertex="1">
          <mxGeometry x="-620" y="388" width="120" height="60" as="geometry" />
        </mxCell>
        <mxCell id="w3gEIACgnD2J5lPuFtTi-5" value="BotID" style="ellipse;whiteSpace=wrap;html=1;align=center;fillColor=#bac8d3;strokeColor=#23445d;" parent="1" vertex="1">
          <mxGeometry x="-610" y="468" width="120" height="60" as="geometry" />
        </mxCell>
        <mxCell id="w3gEIACgnD2J5lPuFtTi-7" value="View" style="shape=rhombus;perimeter=rhombusPerimeter;whiteSpace=wrap;html=1;align=center;" parent="1" vertex="1">
          <mxGeometry x="-240" y="717.5" width="120" height="60" as="geometry" />
        </mxCell>
        <mxCell id="w3gEIACgnD2J5lPuFtTi-10" value="N" style="text;html=1;align=center;verticalAlign=middle;resizable=0;points=[];autosize=1;strokeColor=none;fillColor=none;" parent="1" vertex="1">
          <mxGeometry x="-255" y="722.5" width="30" height="30" as="geometry" />
        </mxCell>
        <mxCell id="w3gEIACgnD2J5lPuFtTi-11" value="1" style="text;html=1;align=center;verticalAlign=middle;resizable=0;points=[];autosize=1;strokeColor=none;fillColor=none;" parent="1" vertex="1">
          <mxGeometry x="-130" y="722.5" width="30" height="30" as="geometry" />
        </mxCell>
        <mxCell id="w3gEIACgnD2J5lPuFtTi-12" style="rounded=0;orthogonalLoop=1;jettySize=auto;html=1;exitX=0.25;exitY=1;exitDx=0;exitDy=0;entryX=0.995;entryY=0.543;entryDx=0;entryDy=0;entryPerimeter=0;endArrow=none;endFill=0;" parent="1" source="w3gEIACgnD2J5lPuFtTi-1" target="w3gEIACgnD2J5lPuFtTi-5" edge="1">
          <mxGeometry relative="1" as="geometry" />
        </mxCell>
        <mxCell id="w3gEIACgnD2J5lPuFtTi-13" style="rounded=0;orthogonalLoop=1;jettySize=auto;html=1;exitX=1;exitY=0.5;exitDx=0;exitDy=0;entryX=-0.003;entryY=0.784;entryDx=0;entryDy=0;entryPerimeter=0;endArrow=none;endFill=0;" parent="1" source="w3gEIACgnD2J5lPuFtTi-4" target="w3gEIACgnD2J5lPuFtTi-1" edge="1">
          <mxGeometry relative="1" as="geometry" />
        </mxCell>
        <mxCell id="w3gEIACgnD2J5lPuFtTi-29" style="rounded=0;orthogonalLoop=1;jettySize=auto;html=1;endArrow=none;endFill=0;exitX=1;exitY=0;exitDx=0;exitDy=0;entryX=0.5;entryY=1;entryDx=0;entryDy=0;" parent="1" source="AaAI17sAa2OLWKaY4wJc-69" target="w3gEIACgnD2J5lPuFtTi-66" edge="1">
          <mxGeometry relative="1" as="geometry">
            <mxPoint x="300" y="240" as="targetPoint" />
            <mxPoint x="405" y="278" as="sourcePoint" />
          </mxGeometry>
        </mxCell>
        <mxCell id="w3gEIACgnD2J5lPuFtTi-30" style="rounded=0;orthogonalLoop=1;jettySize=auto;html=1;entryX=0.5;entryY=1;entryDx=0;entryDy=0;endArrow=none;endFill=0;exitX=0.587;exitY=0.024;exitDx=0;exitDy=0;exitPerimeter=0;" parent="1" source="w3gEIACgnD2J5lPuFtTi-35" target="w3gEIACgnD2J5lPuFtTi-40" edge="1">
          <mxGeometry relative="1" as="geometry">
            <mxPoint x="512" y="249" as="targetPoint" />
            <mxPoint x="475" y="288" as="sourcePoint" />
          </mxGeometry>
        </mxCell>
        <mxCell id="w3gEIACgnD2J5lPuFtTi-31" style="rounded=0;orthogonalLoop=1;jettySize=auto;html=1;entryX=0;entryY=1;entryDx=0;entryDy=0;endArrow=none;endFill=0;exitX=1;exitY=0;exitDx=0;exitDy=0;" parent="1" source="w3gEIACgnD2J5lPuFtTi-35" target="w3gEIACgnD2J5lPuFtTi-38" edge="1">
          <mxGeometry relative="1" as="geometry">
            <mxPoint x="475" y="318" as="sourcePoint" />
          </mxGeometry>
        </mxCell>
        <mxCell id="w3gEIACgnD2J5lPuFtTi-32" style="rounded=0;orthogonalLoop=1;jettySize=auto;html=1;entryX=0;entryY=0.5;entryDx=0;entryDy=0;endArrow=none;endFill=0;exitX=1;exitY=1;exitDx=0;exitDy=0;" parent="1" source="w3gEIACgnD2J5lPuFtTi-35" target="w3gEIACgnD2J5lPuFtTi-37" edge="1">
          <mxGeometry relative="1" as="geometry">
            <mxPoint x="485" y="358" as="sourcePoint" />
          </mxGeometry>
        </mxCell>
        <mxCell id="w3gEIACgnD2J5lPuFtTi-33" style="rounded=0;orthogonalLoop=1;jettySize=auto;html=1;entryX=0;entryY=0;entryDx=0;entryDy=0;endArrow=none;endFill=0;exitX=0.75;exitY=1;exitDx=0;exitDy=0;" parent="1" source="w3gEIACgnD2J5lPuFtTi-35" target="w3gEIACgnD2J5lPuFtTi-36" edge="1">
          <mxGeometry relative="1" as="geometry">
            <mxPoint x="425" y="378" as="sourcePoint" />
          </mxGeometry>
        </mxCell>
        <mxCell id="w3gEIACgnD2J5lPuFtTi-34" style="rounded=0;orthogonalLoop=1;jettySize=auto;html=1;entryX=0.265;entryY=0.078;entryDx=0;entryDy=0;endArrow=none;endFill=0;exitX=0.594;exitY=1.005;exitDx=0;exitDy=0;exitPerimeter=0;entryPerimeter=0;" parent="1" source="w3gEIACgnD2J5lPuFtTi-35" target="w3gEIACgnD2J5lPuFtTi-39" edge="1">
          <mxGeometry relative="1" as="geometry">
            <mxPoint x="365" y="388" as="sourcePoint" />
          </mxGeometry>
        </mxCell>
        <mxCell id="w3gEIACgnD2J5lPuFtTi-57" style="rounded=0;orthogonalLoop=1;jettySize=auto;html=1;exitX=0.5;exitY=0;exitDx=0;exitDy=0;entryX=0.5;entryY=1;entryDx=0;entryDy=0;endArrow=none;endFill=0;" parent="1" source="w3gEIACgnD2J5lPuFtTi-35" target="AaAI17sAa2OLWKaY4wJc-69" edge="1">
          <mxGeometry relative="1" as="geometry" />
        </mxCell>
        <mxCell id="w3gEIACgnD2J5lPuFtTi-58" style="rounded=0;orthogonalLoop=1;jettySize=auto;html=1;exitX=0.5;exitY=1;exitDx=0;exitDy=0;entryX=0.5;entryY=0;entryDx=0;entryDy=0;endArrow=none;endFill=0;shape=link;" parent="1" source="w3gEIACgnD2J5lPuFtTi-35" target="w3gEIACgnD2J5lPuFtTi-67" edge="1">
          <mxGeometry relative="1" as="geometry">
            <mxPoint x="185.33333333333348" y="520" as="targetPoint" />
          </mxGeometry>
        </mxCell>
        <mxCell id="w3gEIACgnD2J5lPuFtTi-59" style="rounded=0;orthogonalLoop=1;jettySize=auto;html=1;exitX=1;exitY=0.5;exitDx=0;exitDy=0;entryX=0.023;entryY=0.497;entryDx=0;entryDy=0;shape=link;entryPerimeter=0;" parent="1" source="w3gEIACgnD2J5lPuFtTi-35" target="AaAI17sAa2OLWKaY4wJc-37" edge="1">
          <mxGeometry relative="1" as="geometry" />
        </mxCell>
        <mxCell id="w3gEIACgnD2J5lPuFtTi-35" value="Bot" style="whiteSpace=wrap;html=1;align=center;fillColor=#647687;fontColor=#ffffff;strokeColor=#314354;" parent="1" vertex="1">
          <mxGeometry x="80" y="370" width="210" height="70" as="geometry" />
        </mxCell>
        <mxCell id="w3gEIACgnD2J5lPuFtTi-36" value="Risk" style="ellipse;whiteSpace=wrap;html=1;align=center;strokeColor=#23445d;fillColor=#bac8d3;" parent="1" vertex="1">
          <mxGeometry x="320" y="490" width="120" height="60" as="geometry" />
        </mxCell>
        <mxCell id="w3gEIACgnD2J5lPuFtTi-37" value="UserID" style="ellipse;whiteSpace=wrap;html=1;align=center;fillColor=#bac8d3;strokeColor=#23445d;" parent="1" vertex="1">
          <mxGeometry x="325" y="425" width="120" height="60" as="geometry" />
        </mxCell>
        <mxCell id="w3gEIACgnD2J5lPuFtTi-38" value="&lt;u&gt;BotID&lt;/u&gt;" style="ellipse;whiteSpace=wrap;html=1;align=center;fillColor=#bac8d3;strokeColor=#23445d;" parent="1" vertex="1">
          <mxGeometry x="340" y="285" width="120" height="60" as="geometry" />
        </mxCell>
        <mxCell id="w3gEIACgnD2J5lPuFtTi-39" value="Strategy" style="ellipse;whiteSpace=wrap;html=1;align=center;strokeColor=#23445d;fillColor=#bac8d3;" parent="1" vertex="1">
          <mxGeometry x="197.5" y="485" width="120" height="60" as="geometry" />
        </mxCell>
        <mxCell id="w3gEIACgnD2J5lPuFtTi-40" value="SelectedStocks" style="ellipse;whiteSpace=wrap;html=1;align=center;fillColor=#bac8d3;strokeColor=#23445d;" parent="1" vertex="1">
          <mxGeometry x="210" y="290" width="120" height="60" as="geometry" />
        </mxCell>
        <mxCell id="w3gEIACgnD2J5lPuFtTi-48" style="rounded=0;orthogonalLoop=1;jettySize=auto;html=1;exitX=0.25;exitY=1;exitDx=0;exitDy=0;entryX=1;entryY=0.5;entryDx=0;entryDy=0;endArrow=none;endFill=0;" parent="1" source="w3gEIACgnD2J5lPuFtTi-51" target="w3gEIACgnD2J5lPuFtTi-53" edge="1">
          <mxGeometry relative="1" as="geometry" />
        </mxCell>
        <mxCell id="w3gEIACgnD2J5lPuFtTi-49" style="rounded=0;orthogonalLoop=1;jettySize=auto;html=1;exitX=0;exitY=0.5;exitDx=0;exitDy=0;entryX=1;entryY=0.5;entryDx=0;entryDy=0;endArrow=none;endFill=0;" parent="1" source="w3gEIACgnD2J5lPuFtTi-51" target="w3gEIACgnD2J5lPuFtTi-52" edge="1">
          <mxGeometry relative="1" as="geometry" />
        </mxCell>
        <mxCell id="w3gEIACgnD2J5lPuFtTi-56" style="rounded=0;orthogonalLoop=1;jettySize=auto;html=1;exitX=0.25;exitY=0;exitDx=0;exitDy=0;entryX=1;entryY=1;entryDx=0;entryDy=0;endArrow=none;endFill=0;" parent="1" source="w3gEIACgnD2J5lPuFtTi-51" target="w3gEIACgnD2J5lPuFtTi-55" edge="1">
          <mxGeometry relative="1" as="geometry" />
        </mxCell>
        <mxCell id="w3gEIACgnD2J5lPuFtTi-51" value="Report" style="whiteSpace=wrap;html=1;align=center;fillColor=#647687;fontColor=#ffffff;strokeColor=#314354;" parent="1" vertex="1">
          <mxGeometry x="-560" y="713" width="210" height="70" as="geometry" />
        </mxCell>
        <mxCell id="w3gEIACgnD2J5lPuFtTi-52" value="Period" style="ellipse;whiteSpace=wrap;html=1;align=center;fillColor=#bac8d3;strokeColor=#23445d;" parent="1" vertex="1">
          <mxGeometry x="-730" y="713" width="120" height="60" as="geometry" />
        </mxCell>
        <mxCell id="w3gEIACgnD2J5lPuFtTi-53" value="BotID" style="ellipse;whiteSpace=wrap;html=1;align=center;fillColor=#bac8d3;strokeColor=#23445d;" parent="1" vertex="1">
          <mxGeometry x="-710" y="785" width="120" height="60" as="geometry" />
        </mxCell>
        <mxCell id="w3gEIACgnD2J5lPuFtTi-55" value="&lt;u&gt;ReportID&lt;/u&gt;" style="ellipse;whiteSpace=wrap;html=1;align=center;fillColor=#bac8d3;strokeColor=#23445d;" parent="1" vertex="1">
          <mxGeometry x="-680" y="630" width="120" height="60" as="geometry" />
        </mxCell>
        <mxCell id="w3gEIACgnD2J5lPuFtTi-60" value="1" style="text;html=1;align=center;verticalAlign=middle;resizable=0;points=[];autosize=1;strokeColor=none;fillColor=none;" parent="1" vertex="1">
          <mxGeometry x="430" y="375" width="30" height="30" as="geometry" />
        </mxCell>
        <mxCell id="w3gEIACgnD2J5lPuFtTi-61" value="Has" style="shape=rhombus;perimeter=rhombusPerimeter;whiteSpace=wrap;html=1;align=center;" parent="1" vertex="1">
          <mxGeometry x="785" y="717.5" width="120" height="60" as="geometry" />
        </mxCell>
        <mxCell id="w3gEIACgnD2J5lPuFtTi-65" value="N" style="text;html=1;align=center;verticalAlign=middle;resizable=0;points=[];autosize=1;strokeColor=none;fillColor=none;" parent="1" vertex="1">
          <mxGeometry x="850" y="700" width="30" height="30" as="geometry" />
        </mxCell>
        <mxCell id="w3gEIACgnD2J5lPuFtTi-66" value="Notification" style="ellipse;whiteSpace=wrap;html=1;align=center;fillColor=#bac8d3;strokeColor=#23445d;" parent="1" vertex="1">
          <mxGeometry x="197.5" y="175" width="120" height="60" as="geometry" />
        </mxCell>
        <mxCell id="w3gEIACgnD2J5lPuFtTi-67" value="Has" style="shape=rhombus;perimeter=rhombusPerimeter;whiteSpace=wrap;html=1;align=center;" parent="1" vertex="1">
          <mxGeometry x="125" y="545" width="120" height="60" as="geometry" />
        </mxCell>
        <mxCell id="w3gEIACgnD2J5lPuFtTi-69" value="1" style="text;html=1;align=center;verticalAlign=middle;resizable=0;points=[];autosize=1;strokeColor=none;fillColor=none;" parent="1" vertex="1">
          <mxGeometry x="160" y="600" width="30" height="30" as="geometry" />
        </mxCell>
        <mxCell id="w3gEIACgnD2J5lPuFtTi-70" value="N" style="text;html=1;align=center;verticalAlign=middle;resizable=0;points=[];autosize=1;strokeColor=none;fillColor=none;" parent="1" vertex="1">
          <mxGeometry x="160" y="520" width="30" height="30" as="geometry" />
        </mxCell>
        <mxCell id="w3gEIACgnD2J5lPuFtTi-75" style="rounded=0;orthogonalLoop=1;jettySize=auto;html=1;exitX=0;exitY=0.5;exitDx=0;exitDy=0;shape=link;entryX=1;entryY=0.5;entryDx=0;entryDy=0;" parent="1" source="w3gEIACgnD2J5lPuFtTi-74" target="w3gEIACgnD2J5lPuFtTi-1" edge="1">
          <mxGeometry relative="1" as="geometry">
            <mxPoint x="-240" y="403" as="targetPoint" />
          </mxGeometry>
        </mxCell>
        <mxCell id="w3gEIACgnD2J5lPuFtTi-76" style="rounded=0;orthogonalLoop=1;jettySize=auto;html=1;exitX=1;exitY=0.5;exitDx=0;exitDy=0;entryX=0.017;entryY=0.471;entryDx=0;entryDy=0;entryPerimeter=0;endArrow=none;endFill=0;" parent="1" source="w3gEIACgnD2J5lPuFtTi-74" target="w3gEIACgnD2J5lPuFtTi-35" edge="1">
          <mxGeometry relative="1" as="geometry" />
        </mxCell>
        <mxCell id="w3gEIACgnD2J5lPuFtTi-74" value="Generate" style="shape=rhombus;perimeter=rhombusPerimeter;whiteSpace=wrap;html=1;align=center;" parent="1" vertex="1">
          <mxGeometry x="-170" y="373" width="120" height="60" as="geometry" />
        </mxCell>
        <mxCell id="w3gEIACgnD2J5lPuFtTi-77" value="1" style="text;html=1;align=center;verticalAlign=middle;resizable=0;points=[];autosize=1;strokeColor=none;fillColor=none;" parent="1" vertex="1">
          <mxGeometry x="-60" y="375" width="30" height="30" as="geometry" />
        </mxCell>
        <mxCell id="w3gEIACgnD2J5lPuFtTi-78" value="N" style="text;html=1;align=center;verticalAlign=middle;resizable=0;points=[];autosize=1;strokeColor=none;fillColor=none;" parent="1" vertex="1">
          <mxGeometry x="-185" y="373" width="30" height="30" as="geometry" />
        </mxCell>
        <mxCell id="eaDIasTlgS2yOg26RlvH-8" style="rounded=0;orthogonalLoop=1;jettySize=auto;html=1;exitX=0.5;exitY=1;exitDx=0;exitDy=0;entryX=0.5;entryY=0;entryDx=0;entryDy=0;endArrow=none;endFill=0;" parent="1" source="w3gEIACgnD2J5lPuFtTi-51" target="eaDIasTlgS2yOg26RlvH-9" edge="1">
          <mxGeometry relative="1" as="geometry">
            <mxPoint x="-445" y="830" as="sourcePoint" />
          </mxGeometry>
        </mxCell>
        <mxCell id="eaDIasTlgS2yOg26RlvH-9" value="UserID" style="ellipse;whiteSpace=wrap;html=1;align=center;fillColor=#bac8d3;strokeColor=#23445d;" parent="1" vertex="1">
          <mxGeometry x="-590" y="832.5" width="120" height="60" as="geometry" />
        </mxCell>
        <mxCell id="eaDIasTlgS2yOg26RlvH-26" style="rounded=0;orthogonalLoop=1;jettySize=auto;html=1;exitX=1;exitY=0.5;exitDx=0;exitDy=0;entryX=0;entryY=1;entryDx=0;entryDy=0;endArrow=none;endFill=0;" parent="1" source="eaDIasTlgS2yOg26RlvH-21" target="w3gEIACgnD2J5lPuFtTi-35" edge="1">
          <mxGeometry relative="1" as="geometry" />
        </mxCell>
        <mxCell id="eaDIasTlgS2yOg26RlvH-21" value="Has" style="shape=rhombus;perimeter=rhombusPerimeter;whiteSpace=wrap;html=1;align=center;" parent="1" vertex="1">
          <mxGeometry x="-200" y="530" width="120" height="60" as="geometry" />
        </mxCell>
        <mxCell id="eaDIasTlgS2yOg26RlvH-22" value="N" style="text;html=1;align=center;verticalAlign=middle;resizable=0;points=[];autosize=1;strokeColor=none;fillColor=none;" parent="1" vertex="1">
          <mxGeometry x="-215" y="535" width="30" height="30" as="geometry" />
        </mxCell>
        <mxCell id="eaDIasTlgS2yOg26RlvH-23" value="1" style="text;html=1;align=center;verticalAlign=middle;resizable=0;points=[];autosize=1;strokeColor=none;fillColor=none;" parent="1" vertex="1">
          <mxGeometry x="-95" y="530" width="30" height="30" as="geometry" />
        </mxCell>
        <mxCell id="eaDIasTlgS2yOg26RlvH-24" style="rounded=0;orthogonalLoop=1;jettySize=auto;html=1;exitX=1;exitY=0;exitDx=0;exitDy=0;endArrow=none;endFill=0;shape=link;" parent="1" source="w3gEIACgnD2J5lPuFtTi-51" edge="1">
          <mxGeometry relative="1" as="geometry">
            <mxPoint x="-200" y="560" as="targetPoint" />
          </mxGeometry>
        </mxCell>
        <mxCell id="l7GlHwdaurb1njPGJGWN-20" value="Role" style="ellipse;whiteSpace=wrap;html=1;align=center;fillColor=#bac8d3;strokeColor=#23445d;" vertex="1" parent="1">
          <mxGeometry x="260" y="605" width="120" height="60" as="geometry" />
        </mxCell>
        <mxCell id="l7GlHwdaurb1njPGJGWN-21" style="rounded=0;orthogonalLoop=1;jettySize=auto;html=1;exitX=0;exitY=1;exitDx=0;exitDy=0;entryX=0.75;entryY=0;entryDx=0;entryDy=0;endArrow=none;endFill=0;" edge="1" parent="1" source="l7GlHwdaurb1njPGJGWN-20" target="AaAI17sAa2OLWKaY4wJc-10">
          <mxGeometry relative="1" as="geometry">
            <mxPoint x="430" y="665" as="sourcePoint" />
            <mxPoint x="299" y="703" as="targetPoint" />
          </mxGeometry>
        </mxCell>
      </root>
    </mxGraphModel>
  </diagram>
</mxfile>
